<svg width="22" height="22" viewBox="0 0 22 22" fill="none" xmlns="http://www.w3.org/2000/svg">
<path d="M20.1667 5.25025V1.83725C20.1667 1.59418 20.0701 1.36107 19.8982 1.18919C19.7263 1.01732 19.4931 0.920761 19.25 0.920761C19.0069 0.920761 18.7737 1.01732 18.6018 1.18919C18.4299 1.36107 18.3333 1.59418 18.3333 1.83725V4.00566L13.5639 0.78787C12.8075 0.274474 11.9143 0 11 0C10.0857 0 9.19253 0.274474 8.43608 0.78787L2.01942 5.11736C1.39726 5.53667 0.887708 6.10242 0.535575 6.76484C0.183443 7.42726 -0.000475054 8.16604 9.21511e-07 8.91621V17.4176C9.21511e-07 19.9443 2.05608 22 4.58333 22H7.33333C7.57645 22 7.80961 21.9034 7.98151 21.7316C8.15342 21.5597 8.25 21.3266 8.25 21.0835V13.7516C8.25 13.2466 8.66067 12.8351 9.16667 12.8351H12.8333C13.3393 12.8351 13.75 13.2466 13.75 13.7516V21.0835C13.75 21.3266 13.8466 21.5597 14.0185 21.7316C14.1904 21.9034 14.4236 22 14.6667 22H17.4167C19.9439 22 22 19.9443 22 17.4176V8.91621C22.0004 8.20474 21.8348 7.50299 21.5166 6.86663C21.1984 6.23028 20.7362 5.67685 20.1667 5.25025ZM20.1667 17.4176C20.1667 18.9334 18.9328 20.167 17.4167 20.167H15.5833V13.7516C15.5833 12.2357 14.3495 11.0021 12.8333 11.0021H9.16667C7.6505 11.0021 6.41667 12.2357 6.41667 13.7516V20.167H4.58333C3.06717 20.167 1.83333 18.9334 1.83333 17.4176V8.91621C1.83333 8.00064 2.28617 7.1483 3.04517 6.6369L9.46183 2.30741C9.91543 1.99929 10.4512 1.83455 10.9995 1.83455C11.5479 1.83455 12.0837 1.99929 12.5372 2.30741L18.9539 6.6369C19.3274 6.88835 19.6332 7.22777 19.8445 7.62524C20.0559 8.02272 20.1662 8.46606 20.1658 8.91621L20.1667 17.4176Z" fill="#007FE0"/>
</svg>
