<svg xmlns="http://www.w3.org/2000/svg" version="1.1" xmlns:xlink="http://www.w3.org/1999/xlink" width="512" height="512" x="0" y="0" viewBox="0 0 32 32" style="enable-background:new 0 0 512 512" xml:space="preserve"><g><path d="M26.06 22c.43-.03.79-.32.9-.74l3-11A.995.995 0 0 0 28.95 9l-3 .13c-.43-4.01-3.83-7.14-7.95-7.14-4.37 0-7.92 3.52-7.99 7.87l-2.4.11-.71-1.42A1 1 0 0 0 6.01 8H3c-1.32 0-1.32 2 0 2h2.38l.68 1.36 2.85 10.47-.71 1.07a1.985 1.985 0 0 0 1.34 3.07c-.34.43-.55.96-.55 1.54a2.5 2.5 0 0 0 5 0c0-.57-.2-1.08-.51-1.5h10.03c-.32.42-.51.93-.51 1.5a2.5 2.5 0 0 0 5 0c0-.57-.2-1.08-.51-1.5H28c1.32 0 1.32-2 0-2H9.87l.69-1.03 15.51-.97zm-.56 6c-.28 0-.5-.22-.5-.5s.22-.5.5-.5.5.22.5.5-.22.5-.5.5zM18 4c3.31 0 6 2.69 6 6s-2.69 6-6 6-6-2.69-6-6 2.69-6 6-6zm-7.77 7.86c.84 3.52 4 6.14 7.77 6.14 4.02 0 7.35-2.99 7.91-6.86l1.77-.08-2.45 8.99-14.47.9-2.46-9.01 1.93-.09zM11.5 28c-.28 0-.5-.22-.5-.5s.22-.5.5-.5.5.22.5.5-.22.5-.5.5z" fill="#000000" opacity="1" data-original="#000000"></path><path d="M16.29 12.71c.39.39 1.02.39 1.41 0l4-4c.94-.94-.48-2.35-1.41-1.41L17 10.59 15.71 9.3c-.94-.94-2.35.48-1.41 1.41l2 2z" fill="#000000" opacity="1" data-original="#000000"></path></g></svg>