<svg width="22" height="22" viewBox="0 0 22 22" fill="none" xmlns="http://www.w3.org/2000/svg">
<path fill-rule="evenodd" clip-rule="evenodd" d="M21.099 5.42917C18.973 7.55517 13.983 12.5442 12.766 13.7572C12.5054 14.0174 12.1953 14.2228 11.854 14.3612C10.878 14.7662 8.49702 15.7002 7.79702 15.7472C7.59068 15.761 7.38375 15.7306 7.19013 15.6579C6.99652 15.5852 6.82069 15.472 6.67445 15.3257C6.52821 15.1795 6.41495 15.0037 6.34226 14.8101C6.26958 14.6164 6.23915 14.4095 6.25302 14.2032C6.30002 13.5032 7.23402 11.1242 7.63202 10.1522C7.77102 9.80717 7.97802 9.49417 8.24102 9.23217L16.571 0.901172C16.9747 0.498263 17.5217 0.271973 18.092 0.271973C18.6623 0.271973 19.2094 0.498263 19.613 0.901172L21.099 2.38717C21.5019 2.79082 21.7282 3.33785 21.7282 3.90817C21.7282 4.4785 21.5019 5.02552 21.099 5.42917ZM7.75602 14.2442C8.44002 14.1582 10.439 13.3242 11.279 12.9752C11.4387 12.9124 11.5837 12.8174 11.705 12.6962L11.706 12.6952C14.4853 9.92141 17.2626 7.14574 20.038 4.36817C20.0985 4.3078 20.1465 4.2361 20.1792 4.15717C20.2119 4.07823 20.2288 3.99362 20.2288 3.90817C20.2288 3.82272 20.2119 3.73811 20.1792 3.65918C20.1465 3.58025 20.0985 3.50854 20.038 3.44817L18.552 1.96217C18.4917 1.9017 18.4199 1.85373 18.341 1.82099C18.2621 1.78826 18.1775 1.77141 18.092 1.77141C18.0066 1.77141 17.922 1.78826 17.843 1.82099C17.7641 1.85373 17.6924 1.9017 17.632 1.96217L9.30102 10.2932C9.18107 10.4125 9.08681 10.5551 9.02402 10.7122L9.02202 10.7162C8.67702 11.5582 7.84202 13.5592 7.75602 14.2442Z" fill="#2F4F4F"/>
<path fill-rule="evenodd" clip-rule="evenodd" d="M19.118 6.34934C19.1877 6.419 19.243 6.50171 19.2807 6.59273C19.3184 6.68376 19.3378 6.78132 19.3378 6.87984C19.3378 6.97836 19.3184 7.07592 19.2807 7.16694C19.243 7.25797 19.1877 7.34067 19.118 7.41034C19.0484 7.48 18.9657 7.53527 18.8746 7.57297C18.7836 7.61067 18.686 7.63008 18.5875 7.63008C18.489 7.63008 18.3914 7.61067 18.3004 7.57297C18.2094 7.53527 18.1267 7.48 18.057 7.41034L14.59 3.94334C14.4493 3.80264 14.3703 3.61181 14.3703 3.41284C14.3703 3.21386 14.4493 3.02304 14.59 2.88234C14.7307 2.74164 14.9215 2.6626 15.1205 2.6626C15.3195 2.6626 15.5103 2.74164 15.651 2.88234L19.118 6.34934ZM12.997 12.4703C13.0666 12.5399 13.1218 12.6226 13.1595 12.7135C13.1972 12.8044 13.2166 12.9019 13.2166 13.0003C13.2166 13.0988 13.1972 13.1962 13.1595 13.2872C13.1218 13.3781 13.0666 13.4607 12.997 13.5303C12.9274 13.5999 12.8448 13.6551 12.7539 13.6928C12.6629 13.7305 12.5655 13.7499 12.467 13.7499C12.3686 13.7499 12.2711 13.7305 12.1802 13.6928C12.0893 13.6551 12.0066 13.5999 11.937 13.5303L8.47002 10.0633C8.40042 9.99374 8.34521 9.91111 8.30754 9.82017C8.26988 9.72923 8.25049 9.63177 8.25049 9.53334C8.25049 9.43491 8.26988 9.33744 8.30754 9.2465C8.34521 9.15557 8.40042 9.07294 8.47002 9.00334C8.53962 8.93374 8.62225 8.87853 8.71319 8.84086C8.80413 8.80319 8.90159 8.7838 9.00002 8.7838C9.09845 8.7838 9.19592 8.80319 9.28686 8.84086C9.37779 8.87853 9.46042 8.93374 9.53002 9.00334L12.997 12.4703Z" fill="#2F4F4F"/>
<path fill-rule="evenodd" clip-rule="evenodd" d="M7.5 2.25C7.69891 2.25 7.88968 2.32902 8.03033 2.46967C8.17098 2.61032 8.25 2.80109 8.25 3C8.25 3.19891 8.17098 3.38968 8.03033 3.53033C7.88968 3.67098 7.69891 3.75 7.5 3.75H4C3.40326 3.75 2.83097 3.98705 2.40901 4.40901C1.98705 4.83097 1.75 5.40326 1.75 6V18C1.75 18.5967 1.98705 19.169 2.40901 19.591C2.83097 20.0129 3.40326 20.25 4 20.25H17C17.5967 20.25 18.169 20.0129 18.591 19.591C19.0129 19.169 19.25 18.5967 19.25 18V14.5C19.25 14.3011 19.329 14.1103 19.4697 13.9697C19.6103 13.829 19.8011 13.75 20 13.75C20.1989 13.75 20.3897 13.829 20.5303 13.9697C20.671 14.1103 20.75 14.3011 20.75 14.5V18C20.7495 18.9944 20.3542 19.9479 19.6511 20.6511C18.9479 21.3542 17.9944 21.7495 17 21.75H4C3.0056 21.7495 2.05208 21.3542 1.34893 20.6511C0.645788 19.9479 0.25053 18.9944 0.25 18V6C0.25 5.00544 0.645088 4.05161 1.34835 3.34835C2.05161 2.64509 3.00544 2.25 4 2.25H7.5Z" fill="#2F4F4F"/>
</svg>
