<svg width="24" height="24" viewBox="0 0 24 24" fill="none" xmlns="http://www.w3.org/2000/svg">
<path d="M14.423 16.2877C14.1246 16.2877 13.8385 16.4063 13.6275 16.6172C13.4165 16.8282 13.298 17.1144 13.298 17.4127V20.1535C13.2976 20.5748 13.1301 20.9787 12.8323 21.2766C12.5345 21.5745 12.1307 21.7421 11.7094 21.7426H3.84659C3.42534 21.7421 3.02149 21.5745 2.72367 21.2766C2.42584 20.9787 2.25837 20.5748 2.258 20.1535V3.84663C2.25837 3.42538 2.42584 3.02148 2.72367 2.72357C3.02149 2.42566 3.42534 2.25806 3.84659 2.25757H11.7094C12.1307 2.25806 12.5345 2.42566 12.8323 2.72357C13.1301 3.02148 13.2976 3.42538 13.298 3.84663V6.21569C13.298 6.51406 13.4165 6.80021 13.6275 7.01119C13.8385 7.22217 14.1246 7.34069 14.423 7.34069C14.7214 7.34069 15.0075 7.22217 15.2185 7.01119C15.4295 6.80021 15.548 6.51406 15.548 6.21569V3.84663C15.5468 2.82891 15.1419 1.85322 14.4224 1.13354C13.7028 0.413857 12.7271 0.00893284 11.7094 0.00756836H3.84659C2.82887 0.00893284 1.85323 0.413857 1.13364 1.13354C0.414041 1.85322 0.00923581 2.82891 0.00799561 3.84663V20.1535C0.00923581 21.1712 0.414041 22.1469 1.13364 22.8666C1.85323 23.5863 2.82887 23.9912 3.84659 23.9926H11.7094C12.7271 23.9912 13.7028 23.5863 14.4224 22.8666C15.1419 22.1469 15.5468 21.1712 15.548 20.1535V17.4127C15.548 17.1144 15.4295 16.8282 15.2185 16.6172C15.0075 16.4063 14.7214 16.2877 14.423 16.2877Z" fill="white"/>
<path d="M23.6611 11.1813L19.6575 7.18047C19.4492 6.97227 19.1676 6.85402 18.8732 6.85113C18.5787 6.84824 18.2948 6.96093 18.0825 7.16501C17.6278 7.60235 17.6386 8.34297 18.0848 8.78922L20.1694 10.8752H10.4194C10.121 10.8752 9.83486 10.9937 9.62388 11.2047C9.4129 11.4156 9.29437 11.7018 9.29437 12.0002C9.29437 12.2985 9.4129 12.5847 9.62388 12.7957C9.83486 13.0066 10.121 13.1252 10.4194 13.1252H20.1694L18.0647 15.2298C17.8537 15.4408 17.7351 15.727 17.735 16.0254C17.735 16.3238 17.8535 16.61 18.0645 16.821C18.2754 17.0321 18.5616 17.1506 18.86 17.1507C19.1584 17.1507 19.4446 17.0322 19.6556 16.8213L23.6611 12.8177C23.7687 12.7103 23.854 12.5828 23.9123 12.4424C23.9705 12.302 24.0005 12.1515 24.0005 11.9995C24.0005 11.8475 23.9705 11.697 23.9123 11.5566C23.854 11.4162 23.7687 11.2886 23.6611 11.1813Z" fill="white"/>
</svg>
