<svg xmlns="http://www.w3.org/2000/svg" version="1.1" xmlns:xlink="http://www.w3.org/1999/xlink" width="512" height="512" x="0" y="0" viewBox="0 0 24 24" style="enable-background:new 0 0 512 512" xml:space="preserve" class=""><g><path d="M22.204 2.162a5.002 5.002 0 0 0-4.098-1.081l-3.822.695A3.998 3.998 0 0 0 12 3.065a3.992 3.992 0 0 0-2.285-1.289l-3.821-.695A5.002 5.002 0 0 0 0 6.001v10.792a4.999 4.999 0 0 0 4.106 4.919l6.284 1.143a9.002 9.002 0 0 0 3.22 0l6.285-1.143A4.998 4.998 0 0 0 24 16.793V6.001a4.99 4.99 0 0 0-1.796-3.839ZM11 20.928a7.339 7.339 0 0 1-.252-.041l-6.284-1.143A3 3 0 0 1 2 16.792V6.001c0-.892.393-1.731 1.078-2.303a2.99 2.99 0 0 1 2.459-.648l3.821.695a2 2 0 0 1 1.643 1.968v15.216Zm11-4.135a3 3 0 0 1-2.463 2.952l-6.284 1.143a7.339 7.339 0 0 1-.252.041V5.712a2 2 0 0 1 1.642-1.968l3.821-.695a2.987 2.987 0 0 1 2.459.648A2.992 2.992 0 0 1 22.001 6v10.792ZM5.5 13V7a1 1 0 0 1 2 0v6a1 1 0 0 1-2 0ZM8 16.5a1.5 1.5 0 1 1-3.001-.001A1.5 1.5 0 0 1 8 16.5Z" fill="#000000" opacity="1" data-original="#000000" class=""></path></g></svg>