<svg xmlns="http://www.w3.org/2000/svg" version="1.1" xmlns:xlink="http://www.w3.org/1999/xlink" width="512" height="512" x="0" y="0" viewBox="0 0 68 68" style="enable-background:new 0 0 512 512" xml:space="preserve"><g><path fill="#ffffff" d="M59.347 18.524v43.47a3.257 3.257 0 0 1-3.257 3.256H15.698a3.257 3.257 0 0 1-3.256-3.257V6.007a3.257 3.257 0 0 1 3.256-3.257h27.875z" opacity="1" data-original="#ffffff"></path><path fill="#eaeaea50" d="M54.288 13.465V65.25h1.802a3.257 3.257 0 0 0 3.257-3.257v-43.47zM18.238 2.75h-2.54a3.257 3.257 0 0 0-3.256 3.257v55.986a3.257 3.257 0 0 0 3.256 3.257h2.54zM22.283 2.75h3.148v62.5h-3.148z" opacity="1" data-original="#eaeaea50"></path><path fill="#ff3333" d="M59.347 18.524H46.83a3.257 3.257 0 0 1-3.257-3.257V2.75zM37.144 44.337V54.37a2.307 2.307 0 0 1-2.307 2.307H10.65a2 2 0 0 1-2-2V44.03a2 2 0 0 1 2-2h24.187a2.307 2.307 0 0 1 2.307 2.306z" opacity="1" data-original="#ff3333"></path><path fill="#ef0a0a" d="M15.34 42.03v14.646h-4.69a2 2 0 0 1-2-2V44.031a2 2 0 0 1 2-2zM20 42.031h3.634v14.646H20z" opacity="1" data-original="#ef0a0a"></path><g fill="#fff"><path d="M17.901 46.268c.673 0 1.195.158 1.569.475.372.317.558.781.558 1.393s-.186 1.079-.558 1.401c-.374.323-.896.484-1.569.484h-1.335v1.86a.214.214 0 0 1-.066.158.216.216 0 0 1-.158.067h-.676a.213.213 0 0 1-.158-.067.215.215 0 0 1-.068-.158v-5.388c0-.061.023-.114.068-.159a.215.215 0 0 1 .158-.066H17.9zm-1.335 2.71h1.293c.318 0 .57-.062.759-.187.19-.125.284-.344.284-.655 0-.311-.095-.527-.284-.647-.188-.119-.441-.179-.759-.179h-1.293zM23.222 46.268c.412 0 .769.054 1.072.162s.555.263.759.463.358.442.467.726c.109.283.173.6.196.95.022.412.022.824 0 1.235-.023.35-.087.667-.196.95-.11.285-.263.526-.463.726-.2.2-.449.355-.747.463s-.646.163-1.047.163h-2.101a.213.213 0 0 1-.158-.067.215.215 0 0 1-.068-.158v-5.388c0-.061.023-.114.068-.159a.215.215 0 0 1 .158-.066h2.06zm1.368 2.302a1.661 1.661 0 0 0-.105-.497 1.13 1.13 0 0 0-.258-.4 1.185 1.185 0 0 0-.43-.267 1.777 1.777 0 0 0-.617-.096h-1.118v3.753h1.16c.228 0 .425-.032.592-.096a1.092 1.092 0 0 0 .67-.663 1.7 1.7 0 0 0 .106-.5c.022-.411.022-.823 0-1.234zM30.595 46.268c.061 0 .114.022.159.066a.218.218 0 0 1 .066.159v.592a.219.219 0 0 1-.066.159.218.218 0 0 1-.16.066h-2.66v1.618h2.495c.06 0 .113.023.158.067a.218.218 0 0 1 .066.158v.593a.219.219 0 0 1-.066.158.218.218 0 0 1-.158.067h-2.495v1.91a.218.218 0 0 1-.066.158.217.217 0 0 1-.16.067h-.674a.217.217 0 0 1-.16-.067.218.218 0 0 1-.066-.158v-5.388c0-.061.023-.114.067-.159a.219.219 0 0 1 .159-.066h3.56z" fill="#ffffff" opacity="1" data-original="#ffffff"></path></g><path fill="#f91c1c" d="M44.285 40.845c-1.144 0-2.418-.548-3.461-1.592-.549-.547-1.72-3.099-3.042-6.333a19.63 19.63 0 0 0-1.412-.314c-1.98-.364-4.095-.547-6.042-.62-2.385 2.615-4.683 4.443-5.477 4.735-2.35.863-4.703.15-5.357-1.626-.33-.901-.148-1.939.5-2.847.576-.808 1.475-1.466 2.532-1.854.73-.269 3.565-.496 6.921-.425a32.951 32.951 0 0 0 2.792-3.675 29.96 29.96 0 0 0 1.806-3.228c-1.27-3.593-2.197-6.543-2.197-7.218 0-2.504 1.482-4.466 3.374-4.466 1.889 0 3.368 1.962 3.368 4.466 0 .795-.818 3.922-2.4 7.363.951 2.611 2.063 5.518 3.082 8.055 3.364 1.043 5.731 2.634 6.318 3.22.797.798 1.337 1.773 1.52 2.748.205 1.098-.067 2.117-.747 2.797-.549.548-1.282.814-2.078.814zm-3.995-7.097c.909 2.163 1.642 3.742 1.956 4.1.99.99 2.245 1.225 2.703.769.282-.283.243-.757.194-1.014-.107-.575-.46-1.195-.967-1.702-.328-.328-1.761-1.301-3.886-2.153zm-18.919.657c.225.609 1.466.925 2.79.439.35-.146 1.74-1.213 3.43-2.893-2.293.028-4.001.192-4.377.32-.672.247-1.252.662-1.592 1.138-.152.213-.386.626-.25.996zm10.593-4.33c1.612.105 3.253.285 4.769.564l.146.027a239.195 239.195 0 0 1-1.91-5.035c-.33.592-.68 1.18-1.052 1.752-.608.937-1.27 1.841-1.953 2.693zm3.258-16.693c-.648 0-1.374 1.055-1.374 2.466.02.524.556 2.274 1.352 4.576.91-2.315 1.38-4.164 1.39-4.578 0-1.41-.722-2.464-1.368-2.464z" opacity="1" data-original="#f91c1c"></path><path d="M59.89 18.014c-.096-.1-15.633-15.648-15.824-15.817A.871.871 0 0 0 43.57 2H15.7a4.015 4.015 0 0 0-4.01 4.01v35.275h-1.04a2.753 2.753 0 0 0-2.75 2.75v10.646a2.753 2.753 0 0 0 2.75 2.75h1.04V62c0 2.206 1.799 4 4.01 4h40.39a4.01 4.01 0 0 0 4.01-4V18.53a.845.845 0 0 0-.21-.516zM44.322 4.565l13.214 13.213H46.83a2.51 2.51 0 0 1-2.507-2.506V4.565zM9.4 54.681V44.035c0-.69.56-1.25 1.25-1.25h24.187c.859 0 1.557.698 1.557 1.557v10.033c0 .858-.698 1.556-1.557 1.556H10.65c-.69 0-1.25-.56-1.25-1.25zM58.6 62c0 1.378-1.126 2.5-2.51 2.5H15.7a2.508 2.508 0 0 1-2.51-2.5v-4.569h21.647a3.06 3.06 0 0 0 3.057-3.056V44.342a3.06 3.06 0 0 0-3.057-3.057H13.19V6.01A2.513 2.513 0 0 1 15.7 3.5h27.123v11.772a4.011 4.011 0 0 0 4.007 4.006H58.6V62z" fill="#000000" opacity="1" data-original="#000000"></path></g></svg>